Coordinates
version=1
nRows=24
nColumns=24
inDegrees=yes

Units are S.I. units (second, meters, Newtons, ...)
Angles are in degrees.

endheader
time	pelvis_tilt	pelvis_list	pelvis_rotation	pelvis_tx	pelvis_ty	pelvis_tz	hip_flexion_r	hip_adduction_r	hip_rotation_r	knee_angle_r	ankle_angle_r	subtalar_angle_r	mtp_angle_r	hip_flexion_l	hip_adduction_l	hip_rotation_l	knee_angle_l	ankle_angle_l	subtalar_angle_l	mtp_angle_l	lumbar_extension	lumbar_bending	lumbar_rotation
      1.47566667	     -3.45127674	     -4.99532571	    -10.74953471	      0.93645821	      0.98217081	      0.31269532	    -14.75075364	      7.49515443	      8.89100364	    -12.49220290	     18.48543639	     -1.10611005	      2.93166815	     33.52165663	     -8.63983941	     -8.29234706	     -1.22322856	     11.08381325	     -4.37955738	     -2.83169194	      2.71703071	      3.80857746	     10.47018564
      1.47983333	     -3.48451124	     -4.89035697	    -10.88003260	      0.94273247	      0.98143267	      0.31253814	    -14.99333563	      7.27464286	      8.91737869	    -12.61718004	     18.27363432	     -1.10463108	      2.95796616	     33.57497950	     -8.58245099	     -7.96305485	     -1.91432488	     11.37604721	     -4.61756826	     -2.77893980	      2.89407009	      3.68974146	     10.56955951
      1.48400000	     -3.57405112	     -4.79193600	    -11.00631093	      0.94903933	      0.98062076	      0.31234844	    -15.17875615	      7.07676263	      9.00260741	    -12.73729524	     18.00331676	     -1.18789319	      3.04155341	     33.67297039	     -8.52396304	     -7.54193006	     -2.58132586	     11.54106752	     -5.02027585	     -2.66827674	      3.11083294	      3.62727033	     10.81404891
      1.48816667	     -3.63629496	     -4.67333444	    -11.14739024	      0.95541987	      0.97988846	      0.31216369	    -15.36947603	      6.84410848	      9.05054356	    -12.89937561	     17.73184676	     -1.22246416	      3.13357628	     33.71301913	     -8.44503420	     -7.19783022	     -3.21753181	     11.70736577	     -5.37796379	     -2.56509209	      3.32534723	      3.51513778	     10.98173864
      1.49233333	     -3.71784437	     -4.55051673	    -11.29671287	      0.96184464	      0.97915430	      0.31196863	    -15.52485221	      6.60862349	      9.10879033	    -13.09005066	     17.43517901	     -1.26676909	      3.27268748	     33.74752182	     -8.35994381	     -6.85081999	     -3.80730030	     11.78225372	     -5.80549383	     -2.43350204	      3.56163412	      3.41288540	     11.18683402
      1.49650000	     -3.76750925	     -4.41356596	    -11.47185008	      0.96832237	      0.97851070	      0.31178217	    -15.68286607	      6.33918188	      9.13360719	    -13.33681806	     17.13754694	     -1.24864914	      3.33679022	     33.73277775	     -8.27082756	     -6.65514091	     -4.38922351	     11.89803045	     -6.06584477	     -2.36850036	      3.77318800	      3.29629107	     11.27100789
      1.50066667	     -3.88122759	     -4.29016431	    -11.63146737	      0.97479559	      0.97778674	      0.31155113	    -15.76787691	      6.10806331	      9.20915727	    -13.59446881	     16.81425555	     -1.31673636	      3.62832641	     33.76234260	     -8.17793063	     -6.29873185	     -4.90583894	     11.76126206	     -6.65058841	     -2.13347663	      4.03790948	      3.22702699	     11.58658622
      1.50483333	     -3.95233335	     -4.14141839	    -11.78478036	      0.98137230	      0.97715386	      0.31128895	    -15.88242141	      5.83416764	      9.21938405	    -13.87077993	     16.47000897	     -1.30468133	      4.15468034	     33.72051649	     -8.04589607	     -6.00587129	     -5.36798849	     11.60577599	     -7.19069960	     -1.72710822	      4.28366603	      3.10832634	     11.78396764
      1.50900000	     -4.00612532	     -3.97394086	    -11.93149823	      0.98803748	      0.97657978	      0.31102134	    -16.00455879	      5.53521167	      9.19501268	    -14.15800845	     16.10016935	     -1.25446328	      4.21622938	     33.68073910	     -7.90471178	     -5.95910011	     -5.88130945	     11.56467002	     -7.29331593	     -1.67211952	      4.49771033	      2.96236651	     11.81072155
      1.51316667	     -4.10564935	     -3.82672127	    -12.07327397	      0.99464827	      0.97596167	      0.31070967	    -16.04230351	      5.27083648	      9.15796431	    -14.50819699	     15.64957832	     -1.24271696	      7.44388460	     33.65429087	     -7.76933723	     -5.75536164	     -6.28468301	     11.14615814	     -7.77831122	      0.73490795	      4.78066497	      2.84793474	     11.87321464
      1.51733333	     -4.18150006	     -3.64475287	    -12.23106978	      1.00137380	      0.97541354	      0.31042461	    -16.09566509	      4.96110014	      9.13592767	    -14.87332931	     15.26380919	     -1.23657008	      7.50982709	     33.60846183	     -7.61378390	     -5.73661787	     -6.71998944	     10.91001123	     -8.01028171	      0.78081332	      5.07087193	      2.69179661	     12.20630684
      1.52150000	     -4.23669737	     -3.46903554	    -12.36131496	      1.00812039	      0.97492795	      0.31008227	    -16.15696159	      4.65724085	      9.06820702	    -15.25647978	     14.81957670	     -1.18457545	      7.54839857	     33.53344478	     -7.44681769	     -5.76561676	     -7.11408504	     10.57769220	     -8.14250884	      0.80825005	      5.33140139	      2.54308231	     12.26694784
      1.52566667	     -4.33095634	     -3.28319916	    -12.50344169	      1.01485578	      0.97442660	      0.30971118	    -16.13419732	      4.34781294	      8.99048689	    -15.71433361	     14.38689676	     -1.08513460	      7.82395229	     33.46699984	     -7.26023329	     -5.61660380	     -7.42760347	      9.99799741	     -8.71462748	      0.99356266	      5.61840240	      2.40136018	     12.52501451
      1.52983333	     -4.41371862	     -3.08876422	    -12.63563917	      1.02162761	      0.97396750	      0.30932419	    -16.10527217	      4.02879605	      8.88392513	    -16.19599846	     13.92273628	     -0.99841343	      8.28910589	     33.40327470	     -7.06844119	     -5.60133887	     -7.75295500	      9.41814076	     -9.07642944	      1.29348451	      5.91163368	      2.24708126	     12.68443224
      1.53400000	     -4.46991273	     -2.87852243	    -12.73736656	      1.02845378	      0.97357246	      0.30888397	    -16.08692981	      3.69376019	      8.72885517	    -16.69917229	     13.42427639	     -0.90937128	      8.95245777	     33.30966265	     -6.83935700	     -5.59754112	     -8.05216868	      8.75000959	     -9.45233569	      1.70434739	      6.17526032	      2.05851393	     12.78707596
      1.53816667	     -4.51108857	     -2.66457658	    -12.82690104	      1.03530493	      0.97324038	      0.30844832	    -16.07301817	      3.36046769	      8.57875462	    -17.21301052	     12.87136459	     -0.90137320	      9.02167988	     33.23833969	     -6.61958883	     -5.79996719	     -8.42991053	      8.20002392	     -9.42353029	      1.74309076	      6.43277439	      1.86133797	     12.78149160
      1.54233333	     -4.58283921	     -2.41917971	    -12.92425587	      1.04212742	      0.97288844	      0.30796749	    -15.96547441	      2.99366710	      8.37313930	    -17.83041414	     12.39739257	     -0.79402547	      9.45503578	     33.17686252	     -6.35743680	     -5.84051810	     -8.73358443	      7.41251633	     -9.86164012	      1.99624840	      6.73188424	      1.63707237	     12.97629261
      1.54650000	     -4.57267953	     -2.18676278	    -12.98318427	      1.04899811	      0.97272418	      0.30743963	    -15.95998803	      2.63049880	      8.15754918	    -18.38575966	     11.62460921	     -0.79527572	     13.23334420	     33.03214406	     -6.08171743	     -5.94082151	     -9.03314019	      6.63807060	    -10.06280562	      4.10523364	      6.90480440	      1.40464608	     12.89773673
      1.55066667	     -4.62221583	     -1.96113646	    -13.01659325	      1.05583854	      0.97248128	      0.30687395	    -15.85465794	      2.29964243	      7.89983377	    -19.02348815	     10.97804582	     -0.73555101	     13.24771365	     33.01399995	     -5.82707615	     -6.13088745	     -9.45570431	      5.98681758	    -10.02519329	      4.10149976	      7.18512545	      1.19155679	     12.94504271
      1.55483333	     -4.66760147	     -1.68615021	    -13.04821664	      1.06268666	      0.97228107	      0.30625005	    -15.69379301	      1.90574987	      7.56200557	    -19.75357258	     10.39888017	     -0.53084418	     13.45398140	     32.96397597	     -5.50047234	     -6.15794940	     -9.80187514	      5.18196626	    -10.35750725	      4.16637177	      7.45645672	      0.91968008	     13.09406978
      1.55900000	     -4.67094532	     -1.40752044	    -13.05051603	      1.06955201	      0.97219482	      0.30559229	    -15.57051196	      1.50837981	      7.21061599	    -20.47744976	      9.70824553	     -0.42067841	     13.82530319	     32.89210491	     -5.15509740	     -6.23178108	    -10.18954108	      4.41782719	    -10.61966705	      4.28983946	      7.67858652	      0.62895386	     13.10190848
      1.56316667	     -4.64905557	     -1.14149795	    -13.00858373	      1.07643079	      0.97216801	      0.30489065	    -15.47182297	      1.13495001	      6.83613871	    -21.19887776	      8.91406547	     -0.41618550	     13.88364455	     32.85272221	     -4.81649169	     -6.40984879	    -10.70824567	      3.86736333	    -10.53933522	      4.30370250	      7.87687981	      0.34005769	     13.07976453
      1.56733333	     -4.61972241	     -0.84996172	    -12.96144093	      1.08331261	      0.97219129	      0.30416219	    -15.34210867	      0.72940261	      6.42212207	    -21.97603641	      8.10881427	     -0.36964334	     13.96618812	     32.81455846	     -4.44791951	     -6.56318306	    -11.24147384	      3.31473580	    -10.53247236	      4.32319909	      8.06933991	      0.01094705	     13.05932498
      1.57150000	     -4.57032167	     -0.54775044	    -12.88739460	      1.09016908	      0.97228438	      0.30338266	    -15.20205402	      0.31130010	      5.95558912	    -22.79698996	      7.27507819	     -0.30389490	     14.06745564	     32.76704784	     -4.05150382	     -6.68705620	    -11.79296748	      2.79835080	    -10.54025384	      4.34513009	      8.23793718	     -0.34237863	     13.03497220
